STARTFONT 2.1
FONT -Adobe-Courier-Medium-R-Normal--14-140-75-75-M-90-iso10646-0400
SIZE 14 75 75
FONTBOUNDINGBOX 10 16 -1 -3
COMMENT $XConsortium: courR14.bdf,v 1.11 95/01/26 18:01:13 gildea Exp $
COMMENT 
COMMENT +
COMMENT  Copyright 1984-1989, 1994 Adobe Systems Incorporated.
COMMENT  Copyright 1988, 1994 Digital Equipment Corporation.
COMMENT
COMMENT  Adobe is a trademark of Adobe Systems Incorporated which may be
COMMENT  registered in certain jurisdictions.
COMMENT  Permission to use these trademarks is hereby granted only in
COMMENT  association with the images described in this file.
COMMENT
COMMENT  Permission to use, copy, modify, distribute and sell this software
COMMENT  and its documentation for any purpose and without fee is hereby
COMMENT  granted, provided that the above copyright notices appear in all
COMMENT  copies and that both those copyright notices and this permission
COMMENT  notice appear in supporting documentation, and that the names of
COMMENT  Adobe Systems and Digital Equipment Corporation not be used in
COMMENT  advertising or publicity pertaining to distribution of the software
COMMENT  without specific, written prior permission.  Adobe Systems and
COMMENT  Digital Equipment Corporation make no representations about the
COMMENT  suitability of this software for any purpose.  It is provided "as
COMMENT  is" without express or implied warranty.
COMMENT -
STARTPROPERTIES 32
FOUNDRY "Adobe"
FAMILY_NAME "Courier"
WEIGHT_NAME "Medium"
SLANT "R"
SETWIDTH_NAME "Normal"
ADD_STYLE_NAME ""
PIXEL_SIZE 14
POINT_SIZE 140
RESOLUTION_X 75
RESOLUTION_Y 75
SPACING "M"
AVERAGE_WIDTH 90
CHARSET_REGISTRY "iso10646"
CHARSET_ENCODING "0400"
CAP_HEIGHT 9
X_HEIGHT 7
FONT_ASCENT 12
FONT_DESCENT 3
FACE_NAME "Courier"
COPYRIGHT "Copyright (c) 1984, 1987 Adobe Systems Incorporated. All Rights Reserved. Copyright (c) 1988, 1991 Digital Equipment Corporation. All Rights Reserved."
NOTICE "No mark"
_DEC_DEVICE_FONTNAMES "PS=Courier"

STARTCHAR ldcornsqlr
ENCODING 11
SWIDTH 600 0
DWIDTH 9 0
BBX 5 8 0 4
BITMAP
08
08
08
08
08
08
08
F8
ENDCHAR
STARTCHAR ldcornsqur
ENCODING 12
SWIDTH 600 0
DWIDTH 9 0
BBX 5 8 0 -3
BITMAP
F8
08
08
08
08
08
08
08
ENDCHAR
STARTCHAR ldcornsqul
ENCODING 13
SWIDTH 600 0
DWIDTH 9 0
BBX 5 8 4 -3
BITMAP
F8
80
80
80
80
80
80
80
ENDCHAR
STARTCHAR ldcornsqll
ENCODING 14
SWIDTH 600 0
DWIDTH 9 0
BBX 5 8 4 4
BITMAP
80
80
80
80
80
80
80
F8
ENDCHAR
STARTCHAR ldcross
ENCODING 15
SWIDTH 600 0
DWIDTH 9 0
BBX 9 15 0 -3
BITMAP
0800
0800
0800
0800
0800
0800
0800
FF80
0800
0800
0800
0800
0800
0800
0800
ENDCHAR
STARTCHAR ldhorizontal
ENCODING 18
SWIDTH 600 0
DWIDTH 9 0
BBX 9 1 0 4
BITMAP
FF80
ENDCHAR
STARTCHAR ldteelft
ENCODING 21
SWIDTH 600 0
DWIDTH 9 0
BBX 5 15 4 -3
BITMAP
80
80
80
80
80
80
80
F8
80
80
80
80
80
80
80
ENDCHAR
STARTCHAR ldteert
ENCODING 22
SWIDTH 600 0
DWIDTH 9 0
BBX 5 15 0 -3
BITMAP
08
08
08
08
08
08
08
F8
08
08
08
08
08
08
08
ENDCHAR
STARTCHAR ldteebt
ENCODING 23
SWIDTH 600 0
DWIDTH 9 0
BBX 9 8 0 4
BITMAP
0800
0800
0800
0800
0800
0800
0800
FF80
ENDCHAR
STARTCHAR ldteetp
ENCODING 24
SWIDTH 600 0
DWIDTH 9 0
BBX 9 8 0 -3
BITMAP
FF80
0800
0800
0800
0800
0800
0800
0800
ENDCHAR
STARTCHAR ldvertical
ENCODING 25
SWIDTH 600 0
DWIDTH 9 0
BBX 1 15 4 -3
BITMAP
80
80
80
80
80
80
80
80
80
80
80
80
80
80
80
ENDCHAR
STARTCHAR space
ENCODING 32
SWIDTH 600 0
DWIDTH 9 0
BBX 0 0 0 0
BITMAP
ENDCHAR
STARTCHAR exclam
ENCODING 33
SWIDTH 600 0
DWIDTH 9 0
BBX 1 10 3 0
BITMAP
80
80
80
80
80
80
80
00
00
80
ENDCHAR
STARTCHAR quotedbl
ENCODING 34
SWIDTH 600 0
DWIDTH 9 0
BBX 4 4 2 5
BITMAP
90
90
90
90
ENDCHAR
STARTCHAR numbersign
ENCODING 35
SWIDTH 600 0
DWIDTH 9 0
BBX 5 9 2 0
BITMAP
50
50
50
F8
50
F8
50
50
50
ENDCHAR
STARTCHAR dollar
ENCODING 36
SWIDTH 600 0
DWIDTH 9 0
BBX 5 13 2 -2
BITMAP
20
20
78
88
80
C0
30
08
88
F0
20
20
20
ENDCHAR
STARTCHAR percent
ENCODING 37
SWIDTH 600 0
DWIDTH 9 0
BBX 7 10 1 0
BITMAP
60
90
90
66
18
30
CC
12
12
0C
ENDCHAR
STARTCHAR ampersand
ENCODING 38
SWIDTH 600 0
DWIDTH 9 0
BBX 6 8 1 0
BITMAP
38
48
40
40
A8
90
98
64
ENDCHAR
STARTCHAR quotesingle
ENCODING 39
SWIDTH 600 0
DWIDTH 9 0
BBX 1 4 3 5
BITMAP
80
80
80
80
ENDCHAR
STARTCHAR parenleft
ENCODING 40
SWIDTH 600 0
DWIDTH 9 0
BBX 3 12 3 -2
BITMAP
20
40
40
80
80
80
80
80
80
40
40
20
ENDCHAR
STARTCHAR parenright
ENCODING 41
SWIDTH 600 0
DWIDTH 9 0
BBX 3 12 2 -2
BITMAP
80
40
40
20
20
20
20
20
20
40
40
80
ENDCHAR
STARTCHAR asterisk
ENCODING 42
SWIDTH 600 0
DWIDTH 9 0
BBX 5 6 1 3
BITMAP
20
20
F8
20
50
88
ENDCHAR
STARTCHAR plus
ENCODING 43
SWIDTH 600 0
DWIDTH 9 0
BBX 7 7 1 1
BITMAP
10
10
10
FE
10
10
10
ENDCHAR
STARTCHAR comma
ENCODING 44
SWIDTH 600 0
DWIDTH 9 0
BBX 3 4 2 -2
BITMAP
60
60
C0
80
ENDCHAR
STARTCHAR minus
ENCODING 45
SWIDTH 600 0
DWIDTH 9 0
BBX 7 1 1 4
BITMAP
FE
ENDCHAR
STARTCHAR period
ENCODING 46
SWIDTH 600 0
DWIDTH 9 0
BBX 2 2 3 0
BITMAP
C0
C0
ENDCHAR
STARTCHAR slash
ENCODING 47
SWIDTH 600 0
DWIDTH 9 0
BBX 6 11 1 -1
BITMAP
04
08
08
10
10
20
20
40
40
80
80
ENDCHAR
STARTCHAR zero
ENCODING 48
SWIDTH 600 0
DWIDTH 9 0
BBX 6 10 1 0
BITMAP
78
84
84
84
84
84
84
84
84
78
ENDCHAR
STARTCHAR one
ENCODING 49
SWIDTH 600 0
DWIDTH 9 0
BBX 5 10 1 0
BITMAP
20
60
A0
20
20
20
20
20
20
F8
ENDCHAR
STARTCHAR two
ENCODING 50
SWIDTH 600 0
DWIDTH 9 0
BBX 6 10 1 0
BITMAP
78
84
84
04
08
10
20
40
84
FC
ENDCHAR
STARTCHAR three
ENCODING 51
SWIDTH 600 0
DWIDTH 9 0
BBX 6 10 1 0
BITMAP
78
84
04
04
38
04
04
04
84
78
ENDCHAR
STARTCHAR four
ENCODING 52
SWIDTH 600 0
DWIDTH 9 0
BBX 6 10 1 0
BITMAP
18
28
28
48
48
88
88
FC
08
1C
ENDCHAR
STARTCHAR five
ENCODING 53
SWIDTH 600 0
DWIDTH 9 0
BBX 6 10 1 0
BITMAP
7C
40
40
40
78
04
04
04
84
78
ENDCHAR
STARTCHAR six
ENCODING 54
SWIDTH 600 0
DWIDTH 9 0
BBX 6 10 1 0
BITMAP
38
40
80
80
B8
C4
84
84
44
38
ENDCHAR
STARTCHAR seven
ENCODING 55
SWIDTH 600 0
DWIDTH 9 0
BBX 6 10 1 0
BITMAP
FC
84
04
08
08
08
10
10
10
10
ENDCHAR
STARTCHAR eight
ENCODING 56
SWIDTH 600 0
DWIDTH 9 0
BBX 6 10 1 0
BITMAP
78
84
84
84
78
84
84
84
84
78
ENDCHAR
STARTCHAR nine
ENCODING 57
SWIDTH 600 0
DWIDTH 9 0
BBX 6 10 1 0
BITMAP
70
88
84
84
8C
74
04
04
08
70
ENDCHAR
STARTCHAR colon
ENCODING 58
SWIDTH 600 0
DWIDTH 9 0
BBX 2 7 3 0
BITMAP
C0
C0
00
00
00
C0
C0
ENDCHAR
STARTCHAR semicolon
ENCODING 59
SWIDTH 600 0
DWIDTH 9 0
BBX 3 9 2 -2
BITMAP
60
60
00
00
00
60
60
C0
80
ENDCHAR
STARTCHAR less
ENCODING 60
SWIDTH 600 0
DWIDTH 9 0
BBX 7 7 1 1
BITMAP
06
18
60
80
60
18
06
ENDCHAR
STARTCHAR equal
ENCODING 61
SWIDTH 600 0
DWIDTH 9 0
BBX 7 3 1 3
BITMAP
FE
00
FE
ENDCHAR
STARTCHAR greater
ENCODING 62
SWIDTH 600 0
DWIDTH 9 0
BBX 7 7 1 1
BITMAP
C0
30
0C
02
0C
30
C0
ENDCHAR
STARTCHAR question
ENCODING 63
SWIDTH 600 0
DWIDTH 9 0
BBX 5 9 1 0
BITMAP
70
88
88
08
10
20
20
00
20
ENDCHAR
STARTCHAR at
ENCODING 64
SWIDTH 600 0
DWIDTH 9 0
BBX 7 10 1 -1
BITMAP
38
44
84
9C
A4
A4
9E
80
40
38
ENDCHAR
STARTCHAR A
ENCODING 65
SWIDTH 600 0
DWIDTH 9 0
BBX 9 9 0 0
BITMAP
3800
0800
1400
1400
2200
3E00
4100
4100
F780
ENDCHAR
STARTCHAR B
ENCODING 66
SWIDTH 600 0
DWIDTH 9 0
BBX 7 9 1 0
BITMAP
FC
42
42
42
7C
42
42
42
FC
ENDCHAR
STARTCHAR C
ENCODING 67
SWIDTH 600 0
DWIDTH 9 0
BBX 7 9 1 0
BITMAP
3A
46
82
80
80
80
80
42
3C
ENDCHAR
STARTCHAR D
ENCODING 68
SWIDTH 600 0
DWIDTH 9 0
BBX 8 9 0 0
BITMAP
FC
42
41
41
41
41
41
42
FC
ENDCHAR
STARTCHAR E
ENCODING 69
SWIDTH 600 0
DWIDTH 9 0
BBX 7 9 1 0
BITMAP
FE
42
42
48
78
48
42
42
FE
ENDCHAR
STARTCHAR F
ENCODING 70
SWIDTH 600 0
DWIDTH 9 0
BBX 7 9 1 0
BITMAP
FE
42
42
48
78
48
40
40
F0
ENDCHAR
STARTCHAR G
ENCODING 71
SWIDTH 600 0
DWIDTH 9 0
BBX 8 9 0 0
BITMAP
3A
46
82
80
80
8F
82
42
3C
ENDCHAR
STARTCHAR H
ENCODING 72
SWIDTH 600 0
DWIDTH 9 0
BBX 8 9 0 0
BITMAP
E7
42
42
42
7E
42
42
42
E7
ENDCHAR
STARTCHAR I
ENCODING 73
SWIDTH 600 0
DWIDTH 9 0
BBX 5 9 2 0
BITMAP
F8
20
20
20
20
20
20
20
F8
ENDCHAR
STARTCHAR J
ENCODING 74
SWIDTH 600 0
DWIDTH 9 0
BBX 7 9 1 0
BITMAP
3E
08
08
08
08
88
88
88
70
ENDCHAR
STARTCHAR K
ENCODING 75
SWIDTH 600 0
DWIDTH 9 0
BBX 8 9 0 0
BITMAP
EE
44
48
50
70
48
44
44
E3
ENDCHAR
STARTCHAR L
ENCODING 76
SWIDTH 600 0
DWIDTH 9 0
BBX 8 9 0 0
BITMAP
F8
20
20
20
20
21
21
21
FF
ENDCHAR
STARTCHAR M
ENCODING 77
SWIDTH 600 0
DWIDTH 9 0
BBX 9 9 0 0
BITMAP
E380
6300
5700
5500
4900
4900
4100
4100
E380
ENDCHAR
STARTCHAR N
ENCODING 78
SWIDTH 600 0
DWIDTH 9 0
BBX 8 9 0 0
BITMAP
E7
62
52
52
4A
4A
46
46
E2
ENDCHAR
STARTCHAR O
ENCODING 79
SWIDTH 600 0
DWIDTH 9 0
BBX 8 9 0 0
BITMAP
3C
42
81
81
81
81
81
42
3C
ENDCHAR
STARTCHAR P
ENCODING 80
SWIDTH 600 0
DWIDTH 9 0
BBX 7 9 1 0
BITMAP
FC
42
42
42
42
7C
40
40
F0
ENDCHAR
STARTCHAR Q
ENCODING 81
SWIDTH 600 0
DWIDTH 9 0
BBX 8 11 0 -2
BITMAP
3C
42
81
81
81
81
81
42
3C
31
5E
ENDCHAR
STARTCHAR R
ENCODING 82
SWIDTH 600 0
DWIDTH 9 0
BBX 8 9 0 0
BITMAP
FC
42
42
42
44
78
44
42
E1
ENDCHAR
STARTCHAR S
ENCODING 83
SWIDTH 600 0
DWIDTH 9 0
BBX 6 9 1 0
BITMAP
74
8C
84
80
78
04
84
C4
B8
ENDCHAR
STARTCHAR T
ENCODING 84
SWIDTH 600 0
DWIDTH 9 0
BBX 7 9 1 0
BITMAP
FE
92
92
10
10
10
10
10
7C
ENDCHAR
STARTCHAR U
ENCODING 85
SWIDTH 600 0
DWIDTH 9 0
BBX 8 9 0 0
BITMAP
E7
42
42
42
42
42
42
42
3C
ENDCHAR
STARTCHAR V
ENCODING 86
SWIDTH 600 0
DWIDTH 9 0
BBX 9 9 0 0
BITMAP
E380
4100
4100
2200
2200
1400
1400
0800
0800
ENDCHAR
STARTCHAR W
ENCODING 87
SWIDTH 600 0
DWIDTH 9 0
BBX 9 9 0 0
BITMAP
E380
4100
4900
4900
5500
5500
2200
2200
2200
ENDCHAR
STARTCHAR X
ENCODING 88
SWIDTH 600 0
DWIDTH 9 0
BBX 8 9 0 0
BITMAP
E7
42
24
24
18
24
24
42
E7
ENDCHAR
STARTCHAR Y
ENCODING 89
SWIDTH 600 0
DWIDTH 9 0
BBX 7 9 1 0
BITMAP
EE
44
44
28
28
10
10
10
7C
ENDCHAR
STARTCHAR Z
ENCODING 90
SWIDTH 600 0
DWIDTH 9 0
BBX 6 9 1 0
BITMAP
FC
84
88
10
20
20
44
84
FC
ENDCHAR
STARTCHAR bracketleft
ENCODING 91
SWIDTH 600 0
DWIDTH 9 0
BBX 3 12 3 -2
BITMAP
E0
80
80
80
80
80
80
80
80
80
80
E0
ENDCHAR
STARTCHAR backslash
ENCODING 92
SWIDTH 600 0
DWIDTH 9 0
BBX 6 11 1 -1
BITMAP
80
40
40
20
20
10
10
08
08
04
04
ENDCHAR
STARTCHAR bracketright
ENCODING 93
SWIDTH 600 0
DWIDTH 9 0
BBX 3 12 2 -2
BITMAP
E0
20
20
20
20
20
20
20
20
20
20
E0
ENDCHAR
STARTCHAR asciicircum
ENCODING 94
SWIDTH 600 0
DWIDTH 9 0
BBX 5 5 2 4
BITMAP
20
50
50
88
88
ENDCHAR
STARTCHAR underscore
ENCODING 95
SWIDTH 600 0
DWIDTH 9 0
BBX 9 1 0 -3
BITMAP
FF80
ENDCHAR
STARTCHAR grave
ENCODING 96
SWIDTH 600 0
DWIDTH 9 0
BBX 4 2 2 8
BITMAP
C0
30
ENDCHAR
STARTCHAR a
ENCODING 97
SWIDTH 600 0
DWIDTH 9 0
BBX 7 7 1 0
BITMAP
78
84
04
7C
84
8C
76
ENDCHAR
STARTCHAR b
ENCODING 98
SWIDTH 600 0
DWIDTH 9 0
BBX 8 10 0 0
BITMAP
C0
40
40
5C
62
41
41
41
62
DC
ENDCHAR
STARTCHAR c
ENCODING 99
SWIDTH 600 0
DWIDTH 9 0
BBX 7 7 1 0
BITMAP
3A
46
82
80
80
42
3C
ENDCHAR
STARTCHAR d
ENCODING 100
SWIDTH 600 0
DWIDTH 9 0
BBX 8 10 0 0
BITMAP
06
02
02
3A
46
82
82
82
46
3B
ENDCHAR
STARTCHAR e
ENCODING 101
SWIDTH 600 0
DWIDTH 9 0
BBX 7 7 1 0
BITMAP
38
44
82
FE
80
42
3C
ENDCHAR
STARTCHAR f
ENCODING 102
SWIDTH 600 0
DWIDTH 9 0
BBX 7 10 1 0
BITMAP
1E
20
20
FC
20
20
20
20
20
F8
ENDCHAR
STARTCHAR g
ENCODING 103
SWIDTH 600 0
DWIDTH 9 0
BBX 8 10 0 -3
BITMAP
3B
46
82
82
82
46
3A
02
04
78
ENDCHAR
STARTCHAR h
ENCODING 104
SWIDTH 600 0
DWIDTH 9 0
BBX 8 10 0 0
BITMAP
C0
40
40
5C
62
42
42
42
42
E7
ENDCHAR
STARTCHAR i
ENCODING 105
SWIDTH 600 0
DWIDTH 9 0
BBX 5 10 2 0
BITMAP
20
20
00
E0
20
20
20
20
20
F8
ENDCHAR
STARTCHAR j
ENCODING 106
SWIDTH 600 0
DWIDTH 9 0
BBX 5 13 1 -3
BITMAP
10
10
00
F8
08
08
08
08
08
08
08
10
E0
ENDCHAR
STARTCHAR k
ENCODING 107
SWIDTH 600 0
DWIDTH 9 0
BBX 7 9 1 0
BITMAP
C0
40
4E
48
50
60
50
48
CE
ENDCHAR
STARTCHAR l
ENCODING 108
SWIDTH 600 0
DWIDTH 9 0
BBX 5 9 2 0
BITMAP
E0
20
20
20
20
20
20
20
F8
ENDCHAR
STARTCHAR m
ENCODING 109
SWIDTH 600 0
DWIDTH 9 0
BBX 9 7 0 0
BITMAP
DB00
6D00
4900
4900
4900
4900
ED80
ENDCHAR
STARTCHAR n
ENCODING 110
SWIDTH 600 0
DWIDTH 9 0
BBX 8 7 0 0
BITMAP
DC
62
42
42
42
42
E7
ENDCHAR
STARTCHAR o
ENCODING 111
SWIDTH 600 0
DWIDTH 9 0
BBX 8 7 0 0
BITMAP
3C
42
81
81
81
42
3C
ENDCHAR
STARTCHAR p
ENCODING 112
SWIDTH 600 0
DWIDTH 9 0
BBX 8 10 0 -3
BITMAP
DC
62
41
41
41
62
5C
40
40
F0
ENDCHAR
STARTCHAR q
ENCODING 113
SWIDTH 600 0
DWIDTH 9 0
BBX 8 10 0 -3
BITMAP
3B
46
82
82
82
46
3A
02
02
0F
ENDCHAR
STARTCHAR r
ENCODING 114
SWIDTH 600 0
DWIDTH 9 0
BBX 7 7 1 0
BITMAP
CC
52
60
40
40
40
F0
ENDCHAR
STARTCHAR s
ENCODING 115
SWIDTH 600 0
DWIDTH 9 0
BBX 6 7 1 0
BITMAP
7C
84
80
78
04
84
F8
ENDCHAR
STARTCHAR t
ENCODING 116
SWIDTH 600 0
DWIDTH 9 0
BBX 6 9 1 0
BITMAP
40
40
F8
40
40
40
40
44
38
ENDCHAR
STARTCHAR u
ENCODING 117
SWIDTH 600 0
DWIDTH 9 0
BBX 8 7 0 0
BITMAP
C6
42
42
42
42
46
3B
ENDCHAR
STARTCHAR v
ENCODING 118
SWIDTH 600 0
DWIDTH 9 0
BBX 8 7 0 0
BITMAP
E7
42
42
24
24
18
18
ENDCHAR
STARTCHAR w
ENCODING 119
SWIDTH 600 0
DWIDTH 9 0
BBX 9 7 0 0
BITMAP
E380
4100
4900
4900
2A00
3600
3600
ENDCHAR
STARTCHAR x
ENCODING 120
SWIDTH 600 0
DWIDTH 9 0
BBX 7 7 1 0
BITMAP
EE
44
28
10
28
44
EE
ENDCHAR
STARTCHAR y
ENCODING 121
SWIDTH 600 0
DWIDTH 9 0
BBX 8 10 0 -3
BITMAP
E7
42
42
24
24
18
08
10
10
78
ENDCHAR
STARTCHAR z
ENCODING 122
SWIDTH 600 0
DWIDTH 9 0
BBX 5 7 1 0
BITMAP
F8
88
10
20
40
88
F8
ENDCHAR
STARTCHAR braceleft
ENCODING 123
SWIDTH 600 0
DWIDTH 9 0
BBX 3 12 3 -2
BITMAP
20
40
40
40
40
80
40
40
40
40
40
20
ENDCHAR
STARTCHAR bar
ENCODING 124
SWIDTH 600 0
DWIDTH 9 0
BBX 1 11 4 -2
BITMAP
80
80
80
80
80
80
80
80
80
80
80
ENDCHAR
STARTCHAR braceright
ENCODING 125
SWIDTH 600 0
DWIDTH 9 0
BBX 3 12 2 -2
BITMAP
80
40
40
40
40
20
40
40
40
40
40
80
ENDCHAR
STARTCHAR asciitilde
ENCODING 126
SWIDTH 600 0
DWIDTH 9 0
BBX 6 2 1 3
BITMAP
64
98
ENDCHAR
STARTCHAR space
ENCODING 160
SWIDTH 600 0
DWIDTH 9 0
BBX 0 0 0 0
BITMAP
ENDCHAR
STARTCHAR exclamdown
ENCODING 161
SWIDTH 600 0
DWIDTH 9 0
BBX 1 9 4 -2
BITMAP
80
00
00
80
80
80
80
80
80
ENDCHAR
STARTCHAR cent
ENCODING 162
SWIDTH 600 0
DWIDTH 9 0
BBX 5 9 2 0
BITMAP
20
20
78
88
80
88
70
20
20
ENDCHAR
STARTCHAR sterling
ENCODING 163
SWIDTH 600 0
DWIDTH 9 0
BBX 7 9 1 0
BITMAP
18
24
20
20
78
20
20
42
FC
ENDCHAR
STARTCHAR currency
ENCODING 164
SWIDTH 600 0
DWIDTH 9 0
BBX 6 6 1 1
BITMAP
B4
48
84
84
48
B4
ENDCHAR
STARTCHAR yen
ENCODING 165
SWIDTH 600 0
DWIDTH 9 0
BBX 7 9 1 0
BITMAP
EE
44
44
28
7C
10
7C
10
38
ENDCHAR
STARTCHAR brokenbar
ENCODING 166
SWIDTH 600 0
DWIDTH 9 0
BBX 1 11 4 -2
BITMAP
80
80
80
80
80
00
80
80
80
80
80
ENDCHAR
STARTCHAR section
ENCODING 167
SWIDTH 600 0
DWIDTH 9 0
BBX 6 10 1 -1
BITMAP
3C
44
40
F0
88
44
3C
08
88
F0
ENDCHAR
STARTCHAR dieresis
ENCODING 168
SWIDTH 600 0
DWIDTH 9 0
BBX 5 1 2 8
BITMAP
D8
ENDCHAR
STARTCHAR copyright
ENCODING 169
SWIDTH 600 0
DWIDTH 9 0
BBX 8 9 0 0
BITMAP
3C
42
99
A5
A1
A5
99
42
3C
ENDCHAR
STARTCHAR ordfeminine
ENCODING 170
SWIDTH 600 0
DWIDTH 9 0
BBX 4 6 2 3
BITMAP
C0
20
E0
B0
00
F0
ENDCHAR
STARTCHAR guillemotleft
ENCODING 171
SWIDTH 600 0
DWIDTH 9 0
BBX 8 7 0 0
BITMAP
11
22
44
CC
44
22
11
ENDCHAR
STARTCHAR logicalnot
ENCODING 172
SWIDTH 600 0
DWIDTH 9 0
BBX 7 3 1 3
BITMAP
FE
02
02
ENDCHAR
STARTCHAR hyphen
ENCODING 173
SWIDTH 600 0
DWIDTH 9 0
BBX 6 1 1 4
BITMAP
FC
ENDCHAR
STARTCHAR registered
ENCODING 174
SWIDTH 600 0
DWIDTH 9 0
BBX 8 9 0 0
BITMAP
3C
42
B9
A5
B9
A9
A5
42
3C
ENDCHAR
STARTCHAR macron
ENCODING 175
SWIDTH 600 0
DWIDTH 9 0
BBX 4 1 2 7
BITMAP
F0
ENDCHAR
STARTCHAR degree
ENCODING 176
SWIDTH 600 0
DWIDTH 9 0
BBX 4 4 2 6
BITMAP
60
90
90
60
ENDCHAR
STARTCHAR plusminus
ENCODING 177
SWIDTH 600 0
DWIDTH 9 0
BBX 7 7 1 1
BITMAP
10
10
FE
10
10
00
FE
ENDCHAR
STARTCHAR twosuperior
ENCODING 178
SWIDTH 600 0
DWIDTH 9 0
BBX 4 6 2 4
BITMAP
60
90
10
20
40
F0
ENDCHAR
STARTCHAR threesuperior
ENCODING 179
SWIDTH 600 0
DWIDTH 9 0
BBX 4 6 2 4
BITMAP
E0
10
60
10
90
60
ENDCHAR
STARTCHAR acute
ENCODING 180
SWIDTH 600 0
DWIDTH 9 0
BBX 4 2 2 8
BITMAP
30
C0
ENDCHAR
STARTCHAR mu
ENCODING 181
SWIDTH 600 0
DWIDTH 9 0
BBX 8 10 0 -3
BITMAP
C6
42
42
42
42
46
7B
40
40
40
ENDCHAR
STARTCHAR paragraph
ENCODING 182
SWIDTH 600 0
DWIDTH 9 0
BBX 7 10 1 -1
BITMAP
7E
94
94
94
74
14
14
14
14
36
ENDCHAR
STARTCHAR periodcentered
ENCODING 183
SWIDTH 600 0
DWIDTH 9 0
BBX 2 2 3 3
BITMAP
C0
C0
ENDCHAR
STARTCHAR cedilla
ENCODING 184
SWIDTH 600 0
DWIDTH 9 0
BBX 3 3 2 -3
BITMAP
40
20
E0
ENDCHAR
STARTCHAR onesuperior
ENCODING 185
SWIDTH 600 0
DWIDTH 9 0
BBX 3 6 3 4
BITMAP
40
C0
40
40
40
E0
ENDCHAR
STARTCHAR ordmasculine
ENCODING 186
SWIDTH 600 0
DWIDTH 9 0
BBX 4 6 2 3
BITMAP
60
90
90
60
00
F0
ENDCHAR
STARTCHAR guillemotright
ENCODING 187
SWIDTH 600 0
DWIDTH 9 0
BBX 8 7 0 0
BITMAP
88
44
22
33
22
44
88
ENDCHAR
STARTCHAR onequarter
ENCODING 188
SWIDTH 600 0
DWIDTH 9 0
BBX 10 11 -1 -1
BITMAP
4000
C100
4200
4400
4400
E880
1180
1280
2480
47C0
0080
ENDCHAR
STARTCHAR onehalf
ENCODING 189
SWIDTH 600 0
DWIDTH 9 0
BBX 10 11 -1 -1
BITMAP
4000
C100
4200
4400
4400
E980
1240
1040
2080
4100
03C0
ENDCHAR
STARTCHAR threequarters
ENCODING 190
SWIDTH 600 0
DWIDTH 9 0
BBX 10 11 -1 -1
BITMAP
E000
1080
6100
1200
9200
6480
0980
0A80
1480
27C0
0080
ENDCHAR
STARTCHAR questiondown
ENCODING 191
SWIDTH 600 0
DWIDTH 9 0
BBX 5 9 2 -2
BITMAP
20
00
00
20
60
80
80
88
70
ENDCHAR
STARTCHAR Agrave
ENCODING 192
SWIDTH 600 0
DWIDTH 9 0
BBX 9 12 0 0
BITMAP
6000
1800
0000
3800
0800
1400
1400
2200
3E00
4100
4100
F780
ENDCHAR
STARTCHAR Aacute
ENCODING 193
SWIDTH 600 0
DWIDTH 9 0
BBX 9 12 0 0
BITMAP
0600
1800
0000
3800
0800
1400
1400
2200
3E00
4100
4100
F780
ENDCHAR
STARTCHAR Acircumflex
ENCODING 194
SWIDTH 600 0
DWIDTH 9 0
BBX 9 12 0 0
BITMAP
0800
1400
0000
3800
0800
1400
1400
2200
3E00
4100
4100
F780
ENDCHAR
STARTCHAR Atilde
ENCODING 195
SWIDTH 600 0
DWIDTH 9 0
BBX 9 12 0 0
BITMAP
1A00
2C00
0000
3800
0800
1400
1400
2200
3E00
4100
4100
F780
ENDCHAR
STARTCHAR Adieresis
ENCODING 196
SWIDTH 600 0
DWIDTH 9 0
BBX 9 11 0 0
BITMAP
3600
0000
3800
0800
1400
1400
2200
3E00
4100
4100
F780
ENDCHAR
STARTCHAR Aring
ENCODING 197
SWIDTH 600 0
DWIDTH 9 0
BBX 9 13 0 0
BITMAP
1800
2400
1800
0000
3800
0800
1400
1400
2200
3E00
4100
4100
F780
ENDCHAR
STARTCHAR AE
ENCODING 198
SWIDTH 600 0
DWIDTH 9 0
BBX 9 9 -1 0
BITMAP
1F80
0C80
1400
1480
2780
3C80
4400
4480
EF80
ENDCHAR
STARTCHAR Ccedilla
ENCODING 199
SWIDTH 600 0
DWIDTH 9 0
BBX 7 12 1 -3
BITMAP
3A
46
82
80
80
80
80
42
3C
10
08
38
ENDCHAR
STARTCHAR Egrave
ENCODING 200
SWIDTH 600 0
DWIDTH 9 0
BBX 7 12 1 0
BITMAP
60
18
00
FE
42
48
48
78
48
42
42
FE
ENDCHAR
STARTCHAR Eacute
ENCODING 201
SWIDTH 600 0
DWIDTH 9 0
BBX 7 12 1 0
BITMAP
06
18
00
FE
42
48
48
78
48
42
42
FE
ENDCHAR
STARTCHAR Ecircumflex
ENCODING 202
SWIDTH 600 0
DWIDTH 9 0
BBX 7 12 1 0
BITMAP
10
28
00
FE
42
48
48
78
48
42
42
FE
ENDCHAR
STARTCHAR Edieresis
ENCODING 203
SWIDTH 600 0
DWIDTH 9 0
BBX 7 11 1 0
BITMAP
6C
00
FE
42
48
48
78
48
42
42
FE
ENDCHAR
STARTCHAR Igrave
ENCODING 204
SWIDTH 600 0
DWIDTH 9 0
BBX 5 12 2 0
BITMAP
C0
30
00
F8
20
20
20
20
20
20
20
F8
ENDCHAR
STARTCHAR Iacute
ENCODING 205
SWIDTH 600 0
DWIDTH 9 0
BBX 5 12 2 0
BITMAP
18
60
00
F8
20
20
20
20
20
20
20
F8
ENDCHAR
STARTCHAR Icircumflex
ENCODING 206
SWIDTH 600 0
DWIDTH 9 0
BBX 5 12 2 0
BITMAP
20
50
00
F8
20
20
20
20
20
20
20
F8
ENDCHAR
STARTCHAR Idieresis
ENCODING 207
SWIDTH 600 0
DWIDTH 9 0
BBX 5 11 2 0
BITMAP
D8
00
F8
20
20
20
20
20
20
20
F8
ENDCHAR
STARTCHAR Eth
ENCODING 208
SWIDTH 600 0
DWIDTH 9 0
BBX 8 9 0 0
BITMAP
FC
42
41
41
F1
41
41
42
FC
ENDCHAR
STARTCHAR Ntilde
ENCODING 209
SWIDTH 600 0
DWIDTH 9 0
BBX 8 12 0 0
BITMAP
1A
2C
00
E7
62
52
52
4A
4A
46
46
E2
ENDCHAR
STARTCHAR Ograve
ENCODING 210
SWIDTH 600 0
DWIDTH 9 0
BBX 8 12 0 0
BITMAP
60
18
00
3C
42
81
81
81
81
81
42
3C
ENDCHAR
STARTCHAR Oacute
ENCODING 211
SWIDTH 600 0
DWIDTH 9 0
BBX 8 12 0 0
BITMAP
06
18
00
3C
42
81
81
81
81
81
42
3C
ENDCHAR
STARTCHAR Ocircumflex
ENCODING 212
SWIDTH 600 0
DWIDTH 9 0
BBX 8 12 0 0
BITMAP
18
24
00
3C
42
81
81
81
81
81
42
3C
ENDCHAR
STARTCHAR Otilde
ENCODING 213
SWIDTH 600 0
DWIDTH 9 0
BBX 8 12 0 0
BITMAP
1A
2C
00
3C
42
81
81
81
81
81
42
3C
ENDCHAR
STARTCHAR Odieresis
ENCODING 214
SWIDTH 600 0
DWIDTH 9 0
BBX 8 11 0 0
BITMAP
36
00
3C
42
81
81
81
81
81
42
3C
ENDCHAR
STARTCHAR multiply
ENCODING 215
SWIDTH 600 0
DWIDTH 9 0
BBX 7 7 1 1
BITMAP
82
44
28
10
28
44
82
ENDCHAR
STARTCHAR Oslash
ENCODING 216
SWIDTH 600 0
DWIDTH 9 0
BBX 9 9 -1 0
BITMAP
1E80
2100
4280
4480
4880
5080
6080
6100
9E00
ENDCHAR
STARTCHAR Ugrave
ENCODING 217
SWIDTH 600 0
DWIDTH 9 0
BBX 8 12 0 0
BITMAP
60
18
00
E7
42
42
42
42
42
42
42
3C
ENDCHAR
STARTCHAR Uacute
ENCODING 218
SWIDTH 600 0
DWIDTH 9 0
BBX 8 12 0 0
BITMAP
06
18
00
E7
42
42
42
42
42
42
42
3C
ENDCHAR
STARTCHAR Ucircumflex
ENCODING 219
SWIDTH 600 0
DWIDTH 9 0
BBX 8 12 0 0
BITMAP
18
24
00
E7
42
42
42
42
42
42
42
3C
ENDCHAR
STARTCHAR Udieresis
ENCODING 220
SWIDTH 600 0
DWIDTH 9 0
BBX 8 11 0 0
BITMAP
66
00
E7
42
42
42
42
42
42
42
3C
ENDCHAR
STARTCHAR Yacute
ENCODING 221
SWIDTH 600 0
DWIDTH 9 0
BBX 7 12 1 0
BITMAP
0C
30
00
EE
44
44
28
28
10
10
10
7C
ENDCHAR
STARTCHAR Thorn
ENCODING 222
SWIDTH 600 0
DWIDTH 9 0
BBX 7 9 1 0
BITMAP
E0
40
7C
42
42
42
7C
40
E0
ENDCHAR
STARTCHAR germandbls
ENCODING 223
SWIDTH 600 0
DWIDTH 9 0
BBX 7 10 1 0
BITMAP
38
44
44
44
58
44
42
42
52
CC
ENDCHAR
STARTCHAR agrave
ENCODING 224
SWIDTH 600 0
DWIDTH 9 0
BBX 7 10 1 0
BITMAP
60
18
00
78
84
04
7C
84
8C
76
ENDCHAR
STARTCHAR aacute
ENCODING 225
SWIDTH 600 0
DWIDTH 9 0
BBX 7 10 1 0
BITMAP
18
60
00
78
84
04
7C
84
8C
76
ENDCHAR
STARTCHAR acircumflex
ENCODING 226
SWIDTH 600 0
DWIDTH 9 0
BBX 7 10 1 0
BITMAP
10
28
00
78
84
04
7C
84
8C
76
ENDCHAR
STARTCHAR atilde
ENCODING 227
SWIDTH 600 0
DWIDTH 9 0
BBX 7 10 1 0
BITMAP
34
58
00
78
84
04
7C
84
8C
76
ENDCHAR
STARTCHAR adieresis
ENCODING 228
SWIDTH 600 0
DWIDTH 9 0
BBX 7 9 1 0
BITMAP
6C
00
78
84
04
7C
84
8C
76
ENDCHAR
STARTCHAR aring
ENCODING 229
SWIDTH 600 0
DWIDTH 9 0
BBX 7 11 1 0
BITMAP
30
48
30
00
78
84
04
7C
84
8C
76
ENDCHAR
STARTCHAR ae
ENCODING 230
SWIDTH 600 0
DWIDTH 9 0
BBX 8 7 0 0
BITMAP
76
99
11
7F
88
99
6E
ENDCHAR
STARTCHAR ccedilla
ENCODING 231
SWIDTH 600 0
DWIDTH 9 0
BBX 7 10 1 -3
BITMAP
3A
46
82
80
80
42
3C
10
08
38
ENDCHAR
STARTCHAR egrave
ENCODING 232
SWIDTH 600 0
DWIDTH 9 0
BBX 7 10 1 0
BITMAP
60
18
00
38
44
82
FE
80
42
3C
ENDCHAR
STARTCHAR eacute
ENCODING 233
SWIDTH 600 0
DWIDTH 9 0
BBX 7 10 1 0
BITMAP
0C
30
00
38
44
82
FE
80
42
3C
ENDCHAR
STARTCHAR ecircumflex
ENCODING 234
SWIDTH 600 0
DWIDTH 9 0
BBX 7 10 1 0
BITMAP
10
28
00
38
44
82
FE
80
42
3C
ENDCHAR
STARTCHAR edieresis
ENCODING 235
SWIDTH 600 0
DWIDTH 9 0
BBX 7 9 1 0
BITMAP
6C
00
38
44
82
FE
80
42
3C
ENDCHAR
STARTCHAR igrave
ENCODING 236
SWIDTH 600 0
DWIDTH 9 0
BBX 5 10 2 0
BITMAP
C0
30
00
E0
20
20
20
20
20
F8
ENDCHAR
STARTCHAR iacute
ENCODING 237
SWIDTH 600 0
DWIDTH 9 0
BBX 5 10 2 0
BITMAP
30
C0
00
E0
20
20
20
20
20
F8
ENDCHAR
STARTCHAR icircumflex
ENCODING 238
SWIDTH 600 0
DWIDTH 9 0
BBX 5 10 2 0
BITMAP
20
50
00
E0
20
20
20
20
20
F8
ENDCHAR
STARTCHAR idieresis
ENCODING 239
SWIDTH 600 0
DWIDTH 9 0
BBX 5 9 2 0
BITMAP
D8
00
E0
20
20
20
20
20
F8
ENDCHAR
STARTCHAR eth
ENCODING 240
SWIDTH 600 0
DWIDTH 9 0
BBX 8 11 0 0
BITMAP
66
18
68
04
3E
42
81
81
81
42
3C
ENDCHAR
STARTCHAR ntilde
ENCODING 241
SWIDTH 600 0
DWIDTH 9 0
BBX 8 10 0 0
BITMAP
1A
2C
00
DC
62
42
42
42
42
E7
ENDCHAR
STARTCHAR ograve
ENCODING 242
SWIDTH 600 0
DWIDTH 9 0
BBX 8 10 0 0
BITMAP
30
0C
00
3C
42
81
81
81
42
3C
ENDCHAR
STARTCHAR oacute
ENCODING 243
SWIDTH 600 0
DWIDTH 9 0
BBX 8 10 0 0
BITMAP
0C
30
00
3C
42
81
81
81
42
3C
ENDCHAR
STARTCHAR ocircumflex
ENCODING 244
SWIDTH 600 0
DWIDTH 9 0
BBX 8 10 0 0
BITMAP
10
28
00
3C
42
81
81
81
42
3C
ENDCHAR
STARTCHAR otilde
ENCODING 245
SWIDTH 600 0
DWIDTH 9 0
BBX 8 10 0 0
BITMAP
1A
2C
00
3C
42
81
81
81
42
3C
ENDCHAR
STARTCHAR odieresis
ENCODING 246
SWIDTH 600 0
DWIDTH 9 0
BBX 8 9 0 0
BITMAP
66
00
3C
42
81
81
81
42
3C
ENDCHAR
STARTCHAR divide
ENCODING 247
SWIDTH 600 0
DWIDTH 9 0
BBX 8 7 0 1
BITMAP
18
18
00
FF
00
18
18
ENDCHAR
STARTCHAR oslash
ENCODING 248
SWIDTH 600 0
DWIDTH 9 0
BBX 8 7 0 0
BITMAP
3D
46
89
91
A1
42
BC
ENDCHAR
STARTCHAR ugrave
ENCODING 249
SWIDTH 600 0
DWIDTH 9 0
BBX 8 10 0 0
BITMAP
30
0C
00
C6
42
42
42
42
46
3B
ENDCHAR
STARTCHAR uacute
ENCODING 250
SWIDTH 600 0
DWIDTH 9 0
BBX 8 10 0 0
BITMAP
0C
30
00
C6
42
42
42
42
46
3B
ENDCHAR
STARTCHAR ucircumflex
ENCODING 251
SWIDTH 600 0
DWIDTH 9 0
BBX 8 10 0 0
BITMAP
10
28
00
C6
42
42
42
42
46
3B
ENDCHAR
STARTCHAR udieresis
ENCODING 252
SWIDTH 600 0
DWIDTH 9 0
BBX 8 9 0 0
BITMAP
6C
00
C6
42
42
42
42
46
3B
ENDCHAR
STARTCHAR yacute
ENCODING 253
SWIDTH 600 0
DWIDTH 9 0
BBX 8 13 0 -3
BITMAP
06
18
00
E7
42
42
24
24
18
08
10
10
78
ENDCHAR
STARTCHAR thorn
ENCODING 254
SWIDTH 600 0
DWIDTH 9 0
BBX 8 12 0 -3
BITMAP
C0
40
5C
62
41
41
41
62
5C
40
40
F0
ENDCHAR
STARTCHAR ydieresis
ENCODING 255
SWIDTH 600 0
DWIDTH 9 0
BBX 8 12 0 -3
BITMAP
36
00
E7
42
42
24
24
18
08
10
10
78
ENDCHAR
STARTCHAR uni0400
ENCODING 1024
SWIDTH 600 0
DWIDTH 9 0
BBX 7 12 1 0
BITMAP
60
18
00
FE
42
48
48
78
48
42
42
FE
ENDCHAR
STARTCHAR afii10023
ENCODING 1025
SWIDTH 600 0
DWIDTH 9 0
BBX 7 11 1 0
BITMAP
6C
00
FE
42
42
48
78
48
42
42
FE
ENDCHAR
STARTCHAR afii10051
ENCODING 1026
SWIDTH 600 0
DWIDTH 9 0
BBX 7 9 0 0
BITMAP
F8
A8
20
3C
22
22
22
22
6C
ENDCHAR
STARTCHAR afii10052
ENCODING 1027
SWIDTH 600 0
DWIDTH 9 0
BBX 8 12 0 0
BITMAP
03
0C
00
FF
21
21
20
20
20
20
20
F8
ENDCHAR
STARTCHAR afii10053
ENCODING 1028
SWIDTH 600 0
DWIDTH 9 0
BBX 7 9 1 0
BITMAP
3A
46
82
80
F0
80
80
42
3C
ENDCHAR
STARTCHAR afii10054
ENCODING 1029
SWIDTH 600 0
DWIDTH 9 0
BBX 6 9 1 0
BITMAP
74
8C
84
80
78
04
84
C4
B8
ENDCHAR
STARTCHAR afii10055
ENCODING 1030
SWIDTH 600 0
DWIDTH 9 0
BBX 5 9 2 0
BITMAP
F8
20
20
20
20
20
20
20
F8
ENDCHAR
STARTCHAR afii10056
ENCODING 1031
SWIDTH 600 0
DWIDTH 9 0
BBX 5 11 2 0
BITMAP
D8
00
F8
20
20
20
20
20
20
20
F8
ENDCHAR
STARTCHAR afii10057
ENCODING 1032
SWIDTH 600 0
DWIDTH 9 0
BBX 7 9 1 0
BITMAP
3E
08
08
08
08
88
88
88
70
ENDCHAR
STARTCHAR afii10058
ENCODING 1033
SWIDTH 600 0
DWIDTH 9 0
BBX 9 9 0 0
BITMAP
7E00
2400
2400
2400
2700
2480
2480
A480
CF00
ENDCHAR
STARTCHAR afii10059
ENCODING 1034
SWIDTH 600 0
DWIDTH 9 0
BBX 9 9 0 0
BITMAP
EE00
4400
4400
4400
7F00
4480
4480
4480
EF00
ENDCHAR
STARTCHAR afii10060
ENCODING 1035
SWIDTH 600 0
DWIDTH 9 0
BBX 8 9 0 0
BITMAP
F8
A8
20
3C
22
22
22
22
77
ENDCHAR
STARTCHAR afii10061
ENCODING 1036
SWIDTH 600 0
DWIDTH 9 0
BBX 8 12 0 0
BITMAP
03
0C
00
EE
44
48
50
70
48
44
44
E3
ENDCHAR
STARTCHAR uni040D
ENCODING 1037
SWIDTH 600 0
DWIDTH 9 0
BBX 8 12 0 0
BITMAP
60
18
00
E7
46
4A
4A
4A
52
52
62
E7
ENDCHAR
STARTCHAR afii10062
ENCODING 1038
SWIDTH 600 0
DWIDTH 9 0
BBX 9 12 0 0
BITMAP
2200
1C00
0000
E380
4100
2200
2200
1400
1400
0800
4800
3000
ENDCHAR
STARTCHAR afii10145
ENCODING 1039
SWIDTH 600 0
DWIDTH 9 0
BBX 8 11 0 -2
BITMAP
E7
42
42
42
42
42
42
42
FF
08
08
ENDCHAR
STARTCHAR afii10017
ENCODING 1040
SWIDTH 600 0
DWIDTH 9 0
BBX 9 9 0 0
BITMAP
3800
0800
1400
1400
2200
3E00
4100
4100
F780
ENDCHAR
STARTCHAR afii10018
ENCODING 1041
SWIDTH 600 0
DWIDTH 9 0
BBX 7 9 1 0
BITMAP
FE
42
42
40
7C
42
42
42
FC
ENDCHAR
STARTCHAR afii10019
ENCODING 1042
SWIDTH 600 0
DWIDTH 9 0
BBX 7 9 1 0
BITMAP
FC
42
42
42
7C
42
42
42
FC
ENDCHAR
STARTCHAR afii10020
ENCODING 1043
SWIDTH 600 0
DWIDTH 9 0
BBX 8 9 0 0
BITMAP
FF
21
21
20
20
20
20
20
F8
ENDCHAR
STARTCHAR afii10021
ENCODING 1044
SWIDTH 600 0
DWIDTH 9 0
BBX 8 11 0 -2
BITMAP
7F
22
22
22
22
22
22
42
FF
81
81
ENDCHAR
STARTCHAR afii10022
ENCODING 1045
SWIDTH 600 0
DWIDTH 9 0
BBX 7 9 1 0
BITMAP
FE
42
42
48
78
48
42
42
FE
ENDCHAR
STARTCHAR afii10024
ENCODING 1046
SWIDTH 600 0
DWIDTH 9 0
BBX 9 9 0 0
BITMAP
DD80
4900
2A00
2A00
1C00
2A00
2A00
4900
DD80
ENDCHAR
STARTCHAR afii10025
ENCODING 1047
SWIDTH 600 0
DWIDTH 9 0
BBX 6 9 1 0
BITMAP
B8
C4
84
04
38
04
04
84
78
ENDCHAR
STARTCHAR afii10026
ENCODING 1048
SWIDTH 600 0
DWIDTH 9 0
BBX 8 9 0 0
BITMAP
E7
46
4A
4A
4A
52
52
62
E7
ENDCHAR
STARTCHAR afii10027
ENCODING 1049
SWIDTH 600 0
DWIDTH 9 0
BBX 8 12 0 0
BITMAP
24
18
00
E7
46
4A
4A
4A
52
52
62
E7
ENDCHAR
STARTCHAR afii10028
ENCODING 1050
SWIDTH 600 0
DWIDTH 9 0
BBX 8 9 0 0
BITMAP
EE
44
48
50
70
48
44
44
E3
ENDCHAR
STARTCHAR afii10029
ENCODING 1051
SWIDTH 600 0
DWIDTH 9 0
BBX 8 9 0 0
BITMAP
7F
22
22
22
22
22
22
A2
C7
ENDCHAR
STARTCHAR afii10030
ENCODING 1052
SWIDTH 600 0
DWIDTH 9 0
BBX 9 9 0 0
BITMAP
E380
6300
5700
5500
4900
4900
4100
4100
E380
ENDCHAR
STARTCHAR afii10031
ENCODING 1053
SWIDTH 600 0
DWIDTH 9 0
BBX 8 9 0 0
BITMAP
E7
42
42
42
7E
42
42
42
E7
ENDCHAR
STARTCHAR afii10032
ENCODING 1054
SWIDTH 600 0
DWIDTH 9 0
BBX 8 9 0 0
BITMAP
3C
42
81
81
81
81
81
42
3C
ENDCHAR
STARTCHAR afii10033
ENCODING 1055
SWIDTH 600 0
DWIDTH 9 0
BBX 8 9 0 0
BITMAP
FF
42
42
42
42
42
42
42
E7
ENDCHAR
STARTCHAR afii10034
ENCODING 1056
SWIDTH 600 0
DWIDTH 9 0
BBX 7 9 1 0
BITMAP
FC
42
42
42
42
7C
40
40
F0
ENDCHAR
STARTCHAR afii10035
ENCODING 1057
SWIDTH 600 0
DWIDTH 9 0
BBX 7 9 1 0
BITMAP
3A
46
82
80
80
80
80
42
3C
ENDCHAR
STARTCHAR afii10036
ENCODING 1058
SWIDTH 600 0
DWIDTH 9 0
BBX 7 9 1 0
BITMAP
FE
92
92
10
10
10
10
10
7C
ENDCHAR
STARTCHAR afii10037
ENCODING 1059
SWIDTH 600 0
DWIDTH 9 0
BBX 9 9 0 0
BITMAP
E380
4100
2200
2200
1400
1400
0800
4800
3000
ENDCHAR
STARTCHAR afii10038
ENCODING 1060
SWIDTH 600 0
DWIDTH 9 0
BBX 9 9 0 0
BITMAP
1C00
0800
7F00
8880
8880
8880
7F00
0800
1C00
ENDCHAR
STARTCHAR afii10039
ENCODING 1061
SWIDTH 600 0
DWIDTH 9 0
BBX 8 9 0 0
BITMAP
E7
42
24
24
18
24
24
42
E7
ENDCHAR
STARTCHAR afii10040
ENCODING 1062
SWIDTH 600 0
DWIDTH 9 0
BBX 8 11 0 -2
BITMAP
E7
42
42
42
42
42
42
42
FF
01
01
ENDCHAR
STARTCHAR afii10041
ENCODING 1063
SWIDTH 600 0
DWIDTH 9 0
BBX 8 9 0 0
BITMAP
E7
42
42
42
46
3A
02
02
07
ENDCHAR
STARTCHAR afii10042
ENCODING 1064
SWIDTH 600 0
DWIDTH 9 0
BBX 9 9 0 0
BITMAP
EB80
4900
4900
4900
4900
4900
4900
4900
FF80
ENDCHAR
STARTCHAR afii10043
ENCODING 1065
SWIDTH 600 0
DWIDTH 9 0
BBX 9 11 0 -2
BITMAP
EB80
4900
4900
4900
4900
4900
4900
4900
FF80
0080
0080
ENDCHAR
STARTCHAR afii10044
ENCODING 1066
SWIDTH 600 0
DWIDTH 9 0
BBX 8 9 0 0
BITMAP
F0
A0
A0
20
3E
21
21
21
7E
ENDCHAR
STARTCHAR afii10045
ENCODING 1067
SWIDTH 600 0
DWIDTH 9 0
BBX 8 9 0 0
BITMAP
E7
42
42
42
72
4A
4A
4A
F7
ENDCHAR
STARTCHAR afii10046
ENCODING 1068
SWIDTH 600 0
DWIDTH 9 0
BBX 7 9 1 0
BITMAP
E0
40
40
40
7C
42
42
42
FC
ENDCHAR
STARTCHAR afii10047
ENCODING 1069
SWIDTH 600 0
DWIDTH 9 0
BBX 7 9 1 0
BITMAP
B8
C4
82
02
1E
02
02
84
78
ENDCHAR
STARTCHAR afii10048
ENCODING 1070
SWIDTH 600 0
DWIDTH 9 0
BBX 8 9 0 0
BITMAP
EE
51
51
51
71
51
51
51
EE
ENDCHAR
STARTCHAR afii10049
ENCODING 1071
SWIDTH 600 0
DWIDTH 9 0
BBX 8 9 0 0
BITMAP
3F
42
42
42
22
1E
22
42
87
ENDCHAR
STARTCHAR afii10065
ENCODING 1072
SWIDTH 600 0
DWIDTH 9 0
BBX 7 7 1 0
BITMAP
78
84
04
7C
84
8C
76
ENDCHAR
STARTCHAR afii10066
ENCODING 1073
SWIDTH 600 0
DWIDTH 9 0
BBX 8 10 0 0
BITMAP
01
3E
40
BC
C2
81
81
81
42
3C
ENDCHAR
STARTCHAR afii10067
ENCODING 1074
SWIDTH 600 0
DWIDTH 9 0
BBX 7 7 1 0
BITMAP
FC
42
42
7C
42
42
FC
ENDCHAR
STARTCHAR afii10068
ENCODING 1075
SWIDTH 600 0
DWIDTH 9 0
BBX 7 7 1 0
BITMAP
FE
42
42
40
40
40
E0
ENDCHAR
STARTCHAR afii10069
ENCODING 1076
SWIDTH 600 0
DWIDTH 9 0
BBX 8 9 0 -2
BITMAP
7F
22
22
22
22
42
FF
81
81
ENDCHAR
STARTCHAR afii10070
ENCODING 1077
SWIDTH 600 0
DWIDTH 9 0
BBX 7 7 1 0
BITMAP
38
44
82
FE
80
42
3C
ENDCHAR
STARTCHAR afii10072
ENCODING 1078
SWIDTH 600 0
DWIDTH 9 0
BBX 9 7 0 0
BITMAP
DD80
4900
2A00
1C00
2A00
4900
DD80
ENDCHAR
STARTCHAR afii10073
ENCODING 1079
SWIDTH 600 0
DWIDTH 9 0
BBX 7 7 1 0
BITMAP
BC
C2
02
1C
02
82
7C
ENDCHAR
STARTCHAR afii10074
ENCODING 1080
SWIDTH 600 0
DWIDTH 9 0
BBX 8 7 0 0
BITMAP
E7
46
4A
4A
52
62
E7
ENDCHAR
STARTCHAR afii10075
ENCODING 1081
SWIDTH 600 0
DWIDTH 9 0
BBX 8 10 0 0
BITMAP
24
18
00
E7
46
4A
4A
52
62
E7
ENDCHAR
STARTCHAR afii10076
ENCODING 1082
SWIDTH 600 0
DWIDTH 9 0
BBX 7 7 1 0
BITMAP
EE
48
50
60
50
48
EE
ENDCHAR
STARTCHAR afii10077
ENCODING 1083
SWIDTH 600 0
DWIDTH 9 0
BBX 8 7 0 0
BITMAP
7F
22
22
22
22
A2
C7
ENDCHAR
STARTCHAR afii10078
ENCODING 1084
SWIDTH 600 0
DWIDTH 9 0
BBX 9 7 0 0
BITMAP
E380
5500
5500
4900
4900
4100
E380
ENDCHAR
STARTCHAR afii10079
ENCODING 1085
SWIDTH 600 0
DWIDTH 9 0
BBX 8 7 0 0
BITMAP
E7
42
42
7E
42
42
E7
ENDCHAR
STARTCHAR afii10080
ENCODING 1086
SWIDTH 600 0
DWIDTH 9 0
BBX 8 7 0 0
BITMAP
3C
42
81
81
81
42
3C
ENDCHAR
STARTCHAR afii10081
ENCODING 1087
SWIDTH 600 0
DWIDTH 9 0
BBX 8 7 0 0
BITMAP
FF
42
42
42
42
42
E7
ENDCHAR
STARTCHAR afii10082
ENCODING 1088
SWIDTH 600 0
DWIDTH 9 0
BBX 8 10 0 -3
BITMAP
DC
62
41
41
41
62
5C
40
40
F0
ENDCHAR
STARTCHAR afii10083
ENCODING 1089
SWIDTH 600 0
DWIDTH 9 0
BBX 7 7 1 0
BITMAP
3A
46
82
80
80
42
3C
ENDCHAR
STARTCHAR afii10084
ENCODING 1090
SWIDTH 600 0
DWIDTH 9 0
BBX 7 7 1 0
BITMAP
FE
92
92
10
10
10
38
ENDCHAR
STARTCHAR afii10085
ENCODING 1091
SWIDTH 600 0
DWIDTH 9 0
BBX 8 10 0 -3
BITMAP
E7
42
42
24
24
18
08
10
10
78
ENDCHAR
STARTCHAR afii10086
ENCODING 1092
SWIDTH 600 0
DWIDTH 9 0
BBX 9 13 0 -3
BITMAP
1800
0800
0800
3E00
4900
8880
8880
8880
4900
3E00
0800
0800
1C00
ENDCHAR
STARTCHAR afii10087
ENCODING 1093
SWIDTH 600 0
DWIDTH 9 0
BBX 7 7 1 0
BITMAP
EE
44
28
10
28
44
EE
ENDCHAR
STARTCHAR afii10088
ENCODING 1094
SWIDTH 600 0
DWIDTH 9 0
BBX 8 9 0 -2
BITMAP
E7
42
42
42
42
42
FF
01
01
ENDCHAR
STARTCHAR afii10089
ENCODING 1095
SWIDTH 600 0
DWIDTH 9 0
BBX 8 7 0 0
BITMAP
E7
42
42
46
3A
02
07
ENDCHAR
STARTCHAR afii10090
ENCODING 1096
SWIDTH 600 0
DWIDTH 9 0
BBX 9 7 0 0
BITMAP
EB80
4900
4900
4900
4900
4900
FF80
ENDCHAR
STARTCHAR afii10091
ENCODING 1097
SWIDTH 600 0
DWIDTH 9 0
BBX 9 9 0 -2
BITMAP
EB80
4900
4900
4900
4900
4900
FF80
0080
0080
ENDCHAR
STARTCHAR afii10092
ENCODING 1098
SWIDTH 600 0
DWIDTH 9 0
BBX 8 7 0 0
BITMAP
F0
A0
A0
3E
21
21
7E
ENDCHAR
STARTCHAR afii10093
ENCODING 1099
SWIDTH 600 0
DWIDTH 9 0
BBX 8 7 0 0
BITMAP
E7
42
42
72
4A
4A
F7
ENDCHAR
STARTCHAR afii10094
ENCODING 1100
SWIDTH 600 0
DWIDTH 9 0
BBX 7 7 1 0
BITMAP
E0
40
40
7C
42
42
FC
ENDCHAR
STARTCHAR afii10095
ENCODING 1101
SWIDTH 600 0
DWIDTH 9 0
BBX 7 7 1 0
BITMAP
B8
C4
02
1E
02
84
78
ENDCHAR
STARTCHAR afii10096
ENCODING 1102
SWIDTH 600 0
DWIDTH 9 0
BBX 8 7 0 0
BITMAP
EE
51
51
71
51
51
EE
ENDCHAR
STARTCHAR afii10097
ENCODING 1103
SWIDTH 600 0
DWIDTH 9 0
BBX 7 7 1 0
BITMAP
7E
84
84
7C
24
44
8E
ENDCHAR
STARTCHAR uni0450
ENCODING 1104
SWIDTH 600 0
DWIDTH 9 0
BBX 7 10 1 0
BITMAP
60
18
00
38
44
82
FE
80
42
3C
ENDCHAR
STARTCHAR afii10071
ENCODING 1105
SWIDTH 600 0
DWIDTH 9 0
BBX 7 9 1 0
BITMAP
6C
00
38
44
82
FE
80
42
3C
ENDCHAR
STARTCHAR afii10099
ENCODING 1106
SWIDTH 600 0
DWIDTH 9 0
BBX 7 13 0 -3
BITMAP
C0
40
F0
5C
62
42
42
42
42
E2
02
04
38
ENDCHAR
STARTCHAR afii10100
ENCODING 1107
SWIDTH 600 0
DWIDTH 9 0
BBX 7 10 1 0
BITMAP
0C
30
00
FE
42
42
40
40
40
E0
ENDCHAR
STARTCHAR afii10101
ENCODING 1108
SWIDTH 600 0
DWIDTH 9 0
BBX 7 7 1 0
BITMAP
3A
46
82
F0
80
42
3C
ENDCHAR
STARTCHAR afii10102
ENCODING 1109
SWIDTH 600 0
DWIDTH 9 0
BBX 6 7 1 0
BITMAP
7C
84
80
78
04
84
F8
ENDCHAR
STARTCHAR afii10103
ENCODING 1110
SWIDTH 600 0
DWIDTH 9 0
BBX 5 10 2 0
BITMAP
20
20
00
E0
20
20
20
20
20
F8
ENDCHAR
STARTCHAR afii10104
ENCODING 1111
SWIDTH 600 0
DWIDTH 9 0
BBX 5 9 2 0
BITMAP
D8
00
E0
20
20
20
20
20
F8
ENDCHAR
STARTCHAR afii10105
ENCODING 1112
SWIDTH 600 0
DWIDTH 9 0
BBX 5 13 1 -3
BITMAP
10
10
00
F8
08
08
08
08
08
08
08
10
E0
ENDCHAR
STARTCHAR afii10106
ENCODING 1113
SWIDTH 600 0
DWIDTH 9 0
BBX 9 7 0 0
BITMAP
7E00
2400
2400
2700
2480
A480
CF00
ENDCHAR
STARTCHAR afii10107
ENCODING 1114
SWIDTH 600 0
DWIDTH 9 0
BBX 9 7 0 0
BITMAP
EE00
4400
4400
7F00
4480
4480
EF00
ENDCHAR
STARTCHAR afii10108
ENCODING 1115
SWIDTH 600 0
DWIDTH 9 0
BBX 8 10 0 0
BITMAP
C0
40
F0
5C
62
42
42
42
42
E7
ENDCHAR
STARTCHAR afii10109
ENCODING 1116
SWIDTH 600 0
DWIDTH 9 0
BBX 7 10 1 0
BITMAP
0C
30
00
EE
48
50
60
50
48
EE
ENDCHAR
STARTCHAR uni045D
ENCODING 1117
SWIDTH 600 0
DWIDTH 9 0
BBX 8 10 0 0
BITMAP
60
18
00
E7
46
4A
4A
52
62
E7
ENDCHAR
STARTCHAR afii10110
ENCODING 1118
SWIDTH 600 0
DWIDTH 9 0
BBX 8 13 0 -3
BITMAP
24
18
00
E7
42
42
24
24
18
08
10
10
78
ENDCHAR
STARTCHAR afii10193
ENCODING 1119
SWIDTH 600 0
DWIDTH 9 0
BBX 8 9 0 -2
BITMAP
E7
42
42
42
42
42
FF
08
08
ENDCHAR
STARTCHAR uni0460
ENCODING 1120
SWIDTH 600 0
DWIDTH 9 0
BBX 9 9 0 0
BITMAP
3600
5500
8080
8080
9C80
8880
8880
4900
3600
ENDCHAR
STARTCHAR uni0461
ENCODING 1121
SWIDTH 600 0
DWIDTH 9 0
BBX 9 7 0 0
BITMAP
2200
4100
9C80
8880
8880
5500
3600
ENDCHAR
STARTCHAR afii10146
ENCODING 1122
SWIDTH 600 0
DWIDTH 9 0
BBX 8 9 0 0
BITMAP
70
20
F8
20
3E
21
21
21
7E
ENDCHAR
STARTCHAR afii10194
ENCODING 1123
SWIDTH 600 0
DWIDTH 9 0
BBX 8 10 0 0
BITMAP
70
20
20
F8
A8
20
3E
21
21
7E
ENDCHAR
STARTCHAR uni0464
ENCODING 1124
SWIDTH 600 0
DWIDTH 9 0
BBX 9 9 0 0
BITMAP
E680
4980
5080
5000
7C00
5000
5000
4880
E700
ENDCHAR
STARTCHAR uni0465
ENCODING 1125
SWIDTH 600 0
DWIDTH 9 0
BBX 9 7 0 0
BITMAP
E680
4980
5080
7C00
5000
4880
E700
ENDCHAR
STARTCHAR uni0466
ENCODING 1126
SWIDTH 600 0
DWIDTH 9 0
BBX 9 9 0 0
BITMAP
0800
0800
1400
1400
2200
3E00
4900
4900
DD80
ENDCHAR
STARTCHAR uni0467
ENCODING 1127
SWIDTH 600 0
DWIDTH 9 0
BBX 9 7 0 0
BITMAP
0800
1400
1400
3600
2A00
4900
DD80
ENDCHAR
STARTCHAR uni0468
ENCODING 1128
SWIDTH 600 0
DWIDTH 9 0
BBX 9 9 0 0
BITMAP
E400
4400
4A00
4A00
4A00
7F00
5500
5500
F580
ENDCHAR
STARTCHAR uni0469
ENCODING 1129
SWIDTH 600 0
DWIDTH 9 0
BBX 9 7 0 0
BITMAP
E400
4400
4A00
7A00
5500
5500
F580
ENDCHAR
STARTCHAR uni046A
ENCODING 1130
SWIDTH 600 0
DWIDTH 9 0
BBX 9 9 0 0
BITMAP
7F00
4100
2200
2200
1C00
2A00
2A00
4900
DD80
ENDCHAR
STARTCHAR uni046B
ENCODING 1131
SWIDTH 600 0
DWIDTH 9 0
BBX 9 7 0 0
BITMAP
7F00
4100
2200
1C00
2A00
4900
DD80
ENDCHAR
STARTCHAR uni046C
ENCODING 1132
SWIDTH 600 0
DWIDTH 9 0
BBX 9 9 0 0
BITMAP
DF00
5100
4A00
4A00
7E00
5500
5500
5500
F580
ENDCHAR
STARTCHAR uni046D
ENCODING 1133
SWIDTH 600 0
DWIDTH 9 0
BBX 9 7 0 0
BITMAP
DF00
5100
4A00
7E00
5500
5500
F580
ENDCHAR
STARTCHAR uni046E
ENCODING 1134
SWIDTH 600 0
DWIDTH 9 0
BBX 6 15 1 -3
BITMAP
28
10
00
F8
84
04
04
78
44
04
04
78
80
78
04
ENDCHAR
STARTCHAR uni046F
ENCODING 1135
SWIDTH 600 0
DWIDTH 9 0
BBX 7 13 1 -3
BITMAP
28
10
00
FC
82
02
7C
02
02
7C
80
7C
02
ENDCHAR
STARTCHAR uni0470
ENCODING 1136
SWIDTH 600 0
DWIDTH 9 0
BBX 9 9 0 0
BITMAP
DD80
4900
4900
4900
4900
3E00
0800
0800
1C00
ENDCHAR
STARTCHAR uni0471
ENCODING 1137
SWIDTH 600 0
DWIDTH 9 0
BBX 9 13 0 -3
BITMAP
0800
0800
0800
C980
4900
4900
4900
4900
4900
3E00
0800
0800
0800
ENDCHAR
STARTCHAR afii10147
ENCODING 1138
SWIDTH 600 0
DWIDTH 9 0
BBX 8 9 0 0
BITMAP
3C
42
81
81
FF
81
81
42
3C
ENDCHAR
STARTCHAR afii10195
ENCODING 1139
SWIDTH 600 0
DWIDTH 9 0
BBX 8 7 0 0
BITMAP
3C
42
81
FF
81
42
3C
ENDCHAR
STARTCHAR afii10148
ENCODING 1140
SWIDTH 600 0
DWIDTH 9 0
BBX 9 9 0 0
BITMAP
E100
4280
4200
2200
2400
1400
1400
0800
0800
ENDCHAR
STARTCHAR afii10196
ENCODING 1141
SWIDTH 600 0
DWIDTH 9 0
BBX 9 7 0 0
BITMAP
E100
4280
4200
2400
2400
1800
1800
ENDCHAR
STARTCHAR uni0476
ENCODING 1142
SWIDTH 600 0
DWIDTH 9 0
BBX 9 12 0 0
BITMAP
4800
2400
1200
E100
4280
4200
2200
2400
1400
1400
0800
0800
ENDCHAR
STARTCHAR uni0477
ENCODING 1143
SWIDTH 600 0
DWIDTH 9 0
BBX 9 11 0 0
BITMAP
8800
4400
2200
0000
E100
4280
4200
2400
2400
1800
1800
ENDCHAR
STARTCHAR uni0478
ENCODING 1144
SWIDTH 600 0
DWIDTH 9 0
BBX 9 12 0 -3
BITMAP
6000
A000
9880
9880
9500
9500
9500
5200
6200
0400
0400
0800
ENDCHAR
STARTCHAR uni0479
ENCODING 1145
SWIDTH 600 0
DWIDTH 9 0
BBX 9 10 0 -3
BITMAP
6880
A880
9500
9500
9500
5200
6200
0400
0400
0800
ENDCHAR
STARTCHAR uni047A
ENCODING 1146
SWIDTH 600 0
DWIDTH 9 0
BBX 9 11 0 -1
BITMAP
0800
3E00
4900
8080
8080
8080
8080
8080
4900
3E00
0800
ENDCHAR
STARTCHAR uni047B
ENCODING 1147
SWIDTH 600 0
DWIDTH 9 0
BBX 9 9 0 -1
BITMAP
0800
3E00
4900
8080
8080
8080
4900
3E00
0800
ENDCHAR
STARTCHAR uni047C
ENCODING 1148
SWIDTH 600 0
DWIDTH 9 0
BBX 9 12 0 0
BITMAP
0200
3E00
2000
3600
5500
8080
8080
9C80
8880
8880
4900
3600
ENDCHAR
STARTCHAR uni047D
ENCODING 1149
SWIDTH 600 0
DWIDTH 9 0
BBX 9 11 0 0
BITMAP
0200
3E00
2000
0000
2200
4100
9C80
8880
8880
5500
3600
ENDCHAR
STARTCHAR uni047E
ENCODING 1150
SWIDTH 600 0
DWIDTH 9 0
BBX 9 12 0 0
BITMAP
3E00
2A00
0000
3600
5500
8080
8080
9C80
8880
8880
4900
3600
ENDCHAR
STARTCHAR uni047F
ENCODING 1151
SWIDTH 600 0
DWIDTH 9 0
BBX 9 10 0 0
BITMAP
3E00
2A00
0000
2200
4100
9C80
8880
8880
5500
3600
ENDCHAR
STARTCHAR uni0480
ENCODING 1152
SWIDTH 600 0
DWIDTH 9 0
BBX 7 12 1 -3
BITMAP
3A
46
82
80
80
80
80
40
38
08
08
1C
ENDCHAR
STARTCHAR uni0481
ENCODING 1153
SWIDTH 600 0
DWIDTH 9 0
BBX 7 10 1 -3
BITMAP
3A
46
82
80
80
40
38
08
08
1C
ENDCHAR
STARTCHAR uni0482
ENCODING 1154
SWIDTH 600 0
DWIDTH 9 0
BBX 7 9 1 0
BITMAP
04
04
38
0E
10
E0
38
40
40
ENDCHAR
STARTCHAR uni0483
ENCODING 1155
SWIDTH 600 0
DWIDTH 9 0
BBX 5 3 2 8
BITMAP
08
F8
80
ENDCHAR
STARTCHAR uni0484
ENCODING 1156
SWIDTH 600 0
DWIDTH 9 0
BBX 5 3 2 8
BITMAP
30
48
88
ENDCHAR
STARTCHAR uni0485
ENCODING 1157
SWIDTH 600 0
DWIDTH 9 0
BBX 5 3 2 8
BITMAP
80
F8
80
ENDCHAR
STARTCHAR uni0486
ENCODING 1158
SWIDTH 600 0
DWIDTH 9 0
BBX 5 3 2 8
BITMAP
08
F8
08
ENDCHAR
STARTCHAR uni0488
ENCODING 1160
SWIDTH 600 0
DWIDTH 9 0
BBX 9 12 0 -2
BITMAP
0800
1400
2200
5500
0000
4100
A280
0000
2200
5500
0800
1400
ENDCHAR
STARTCHAR uni0489
ENCODING 1161
SWIDTH 600 0
DWIDTH 9 0
BBX 9 12 0 -2
BITMAP
0400
0800
2300
2000
0000
8100
4080
0000
0200
6200
0800
1000
ENDCHAR
STARTCHAR uni048C
ENCODING 1164
SWIDTH 600 0
DWIDTH 9 0
BBX 7 10 1 0
BITMAP
40
E0
40
40
40
7C
42
42
42
FC
ENDCHAR
STARTCHAR uni048D
ENCODING 1165
SWIDTH 600 0
DWIDTH 9 0
BBX 7 8 1 0
BITMAP
40
E0
40
40
7C
42
42
FC
ENDCHAR
STARTCHAR uni048E
ENCODING 1166
SWIDTH 600 0
DWIDTH 9 0
BBX 7 9 1 0
BITMAP
FC
42
42
4A
44
7A
40
40
F0
ENDCHAR
STARTCHAR uni048F
ENCODING 1167
SWIDTH 600 0
DWIDTH 9 0
BBX 8 10 0 -3
BITMAP
DC
62
41
41
45
62
5D
40
40
F0
ENDCHAR
STARTCHAR afii10050
ENCODING 1168
SWIDTH 600 0
DWIDTH 9 0
BBX 8 11 0 0
BITMAP
01
01
FF
20
20
20
20
20
20
20
F8
ENDCHAR
STARTCHAR afii10098
ENCODING 1169
SWIDTH 600 0
DWIDTH 9 0
BBX 7 9 1 0
BITMAP
02
02
FE
40
40
40
40
40
E0
ENDCHAR
STARTCHAR uni0492
ENCODING 1170
SWIDTH 600 0
DWIDTH 9 0
BBX 8 9 0 0
BITMAP
FF
21
21
20
F8
20
20
20
F8
ENDCHAR
STARTCHAR uni0493
ENCODING 1171
SWIDTH 600 0
DWIDTH 9 0
BBX 7 7 1 0
BITMAP
FE
42
42
F0
40
40
E0
ENDCHAR
STARTCHAR uni0494
ENCODING 1172
SWIDTH 600 0
DWIDTH 9 0
BBX 8 12 0 -3
BITMAP
FF
21
21
2C
32
21
21
21
F9
01
01
0E
ENDCHAR
STARTCHAR uni0495
ENCODING 1173
SWIDTH 600 0
DWIDTH 9 0
BBX 7 10 1 -3
BITMAP
FE
42
42
78
44
44
E4
04
04
38
ENDCHAR
STARTCHAR uni0496
ENCODING 1174
SWIDTH 600 0
DWIDTH 9 0
BBX 9 11 0 -2
BITMAP
DD80
4900
2A00
2A00
1C00
2A00
2A00
4900
DD80
0080
0080
ENDCHAR
STARTCHAR uni0497
ENCODING 1175
SWIDTH 600 0
DWIDTH 9 0
BBX 9 9 0 -2
BITMAP
DD80
4900
2A00
1C00
2A00
4900
DD80
0080
0080
ENDCHAR
STARTCHAR uni0498
ENCODING 1176
SWIDTH 600 0
DWIDTH 9 0
BBX 6 12 1 -3
BITMAP
B8
C4
84
04
38
04
04
84
78
20
10
70
ENDCHAR
STARTCHAR uni0499
ENCODING 1177
SWIDTH 600 0
DWIDTH 9 0
BBX 7 10 1 -3
BITMAP
BC
C2
02
1C
02
82
7C
10
08
38
ENDCHAR
STARTCHAR uni049A
ENCODING 1178
SWIDTH 600 0
DWIDTH 9 0
BBX 8 11 0 -2
BITMAP
EE
44
48
50
70
48
44
44
E3
01
01
ENDCHAR
STARTCHAR uni049B
ENCODING 1179
SWIDTH 600 0
DWIDTH 9 0
BBX 7 9 1 -2
BITMAP
EE
48
50
60
50
48
EE
02
02
ENDCHAR
STARTCHAR uni049C
ENCODING 1180
SWIDTH 600 0
DWIDTH 9 0
BBX 8 9 0 0
BITMAP
EE
44
54
58
78
54
54
42
E3
ENDCHAR
STARTCHAR uni049D
ENCODING 1181
SWIDTH 600 0
DWIDTH 9 0
BBX 7 7 1 0
BITMAP
E6
44
54
78
54
44
E6
ENDCHAR
STARTCHAR uni049E
ENCODING 1182
SWIDTH 600 0
DWIDTH 9 0
BBX 8 9 0 0
BITMAP
EE
44
E8
50
70
48
44
44
E3
ENDCHAR
STARTCHAR uni049F
ENCODING 1183
SWIDTH 600 0
DWIDTH 9 0
BBX 7 9 1 0
BITMAP
C0
40
EE
48
50
60
50
48
CE
ENDCHAR
STARTCHAR uni04A0
ENCODING 1184
SWIDTH 600 0
DWIDTH 9 0
BBX 9 9 0 0
BITMAP
F700
A200
A400
2800
3800
2400
2200
2200
7180
ENDCHAR
STARTCHAR uni04A1
ENCODING 1185
SWIDTH 600 0
DWIDTH 9 0
BBX 8 7 0 0
BITMAP
F7
A4
A8
30
28
24
77
ENDCHAR
STARTCHAR uni04A2
ENCODING 1186
SWIDTH 600 0
DWIDTH 9 0
BBX 8 11 0 -2
BITMAP
E7
42
42
42
7E
42
42
42
E7
01
01
ENDCHAR
STARTCHAR uni04A3
ENCODING 1187
SWIDTH 600 0
DWIDTH 9 0
BBX 8 9 0 -2
BITMAP
E7
42
42
7E
42
42
E7
01
01
ENDCHAR
STARTCHAR uni04A4
ENCODING 1188
SWIDTH 600 0
DWIDTH 9 0
BBX 9 9 0 0
BITMAP
EF80
4480
4480
4400
7C00
4400
4400
4400
EE00
ENDCHAR
STARTCHAR uni04A5
ENCODING 1189
SWIDTH 600 0
DWIDTH 9 0
BBX 9 7 0 0
BITMAP
EF80
4480
4480
7C00
4400
4400
EE00
ENDCHAR
STARTCHAR uni04A6
ENCODING 1190
SWIDTH 600 0
DWIDTH 9 0
BBX 9 12 0 -3
BITMAP
FE00
4400
4400
4400
4700
4480
4480
4480
EE80
0080
0080
0700
ENDCHAR
STARTCHAR uni04A7
ENCODING 1191
SWIDTH 600 0
DWIDTH 9 0
BBX 9 10 0 -3
BITMAP
FE00
4400
4400
4700
4480
4480
EE80
0080
0080
0700
ENDCHAR
STARTCHAR uni04A8
ENCODING 1192
SWIDTH 600 0
DWIDTH 9 0
BBX 8 9 0 0
BITMAP
3C
42
86
89
89
89
89
46
3D
ENDCHAR
STARTCHAR uni04A9
ENCODING 1193
SWIDTH 600 0
DWIDTH 9 0
BBX 8 7 0 0
BITMAP
3C
42
86
89
89
46
3D
ENDCHAR
STARTCHAR uni04AA
ENCODING 1194
SWIDTH 600 0
DWIDTH 9 0
BBX 7 12 1 -3
BITMAP
3A
46
82
80
80
80
80
42
3C
10
08
38
ENDCHAR
STARTCHAR uni04AB
ENCODING 1195
SWIDTH 600 0
DWIDTH 9 0
BBX 7 10 1 -3
BITMAP
3A
46
82
80
80
42
3C
10
08
38
ENDCHAR
STARTCHAR uni04AC
ENCODING 1196
SWIDTH 600 0
DWIDTH 9 0
BBX 7 11 1 -2
BITMAP
FE
92
92
10
10
10
10
10
7C
04
04
ENDCHAR
STARTCHAR uni04AD
ENCODING 1197
SWIDTH 600 0
DWIDTH 9 0
BBX 7 9 1 -2
BITMAP
FE
92
92
10
10
10
38
08
08
ENDCHAR
STARTCHAR uni04AE
ENCODING 1198
SWIDTH 600 0
DWIDTH 9 0
BBX 7 9 1 0
BITMAP
EE
44
44
28
28
10
10
10
7C
ENDCHAR
STARTCHAR uni04AF
ENCODING 1199
SWIDTH 600 0
DWIDTH 9 0
BBX 7 10 1 -3
BITMAP
EE
44
44
28
28
10
10
10
10
7C
ENDCHAR
STARTCHAR uni04B0
ENCODING 1200
SWIDTH 600 0
DWIDTH 9 0
BBX 7 9 1 0
BITMAP
EE
44
44
28
28
7C
10
10
7C
ENDCHAR
STARTCHAR uni04B1
ENCODING 1201
SWIDTH 600 0
DWIDTH 9 0
BBX 7 10 1 -3
BITMAP
EE
44
44
28
28
10
7C
10
10
7C
ENDCHAR
STARTCHAR uni04B2
ENCODING 1202
SWIDTH 600 0
DWIDTH 9 0
BBX 8 11 0 -2
BITMAP
E7
42
24
24
18
24
24
42
E7
01
01
ENDCHAR
STARTCHAR uni04B3
ENCODING 1203
SWIDTH 600 0
DWIDTH 9 0
BBX 7 9 1 -2
BITMAP
EE
44
28
10
28
44
EE
02
02
ENDCHAR
STARTCHAR uni04B4
ENCODING 1204
SWIDTH 600 0
DWIDTH 9 0
BBX 8 11 0 -2
BITMAP
FB
AA
AA
22
22
22
22
22
7F
01
01
ENDCHAR
STARTCHAR uni04B5
ENCODING 1205
SWIDTH 600 0
DWIDTH 9 0
BBX 8 9 0 -2
BITMAP
FB
AA
AA
22
22
22
7F
01
01
ENDCHAR
STARTCHAR uni04B6
ENCODING 1206
SWIDTH 600 0
DWIDTH 9 0
BBX 8 11 0 -2
BITMAP
E7
42
42
42
46
3A
02
02
07
01
01
ENDCHAR
STARTCHAR uni04B7
ENCODING 1207
SWIDTH 600 0
DWIDTH 9 0
BBX 8 9 0 -2
BITMAP
E7
42
42
46
3A
02
07
01
01
ENDCHAR
STARTCHAR uni04B8
ENCODING 1208
SWIDTH 600 0
DWIDTH 9 0
BBX 8 9 0 0
BITMAP
E7
42
42
52
56
3A
12
12
07
ENDCHAR
STARTCHAR uni04B9
ENCODING 1209
SWIDTH 600 0
DWIDTH 9 0
BBX 8 7 0 0
BITMAP
E7
42
52
56
3A
12
07
ENDCHAR
STARTCHAR uni04BA
ENCODING 1210
SWIDTH 600 0
DWIDTH 9 0
BBX 8 9 0 0
BITMAP
E0
40
40
5C
62
42
42
42
E7
ENDCHAR
STARTCHAR uni04BB
ENCODING 1211
SWIDTH 600 0
DWIDTH 9 0
BBX 8 7 0 0
BITMAP
E0
40
5C
62
42
42
E7
ENDCHAR
STARTCHAR uni04BC
ENCODING 1212
SWIDTH 600 0
DWIDTH 9 0
BBX 8 9 0 0
BITMAP
0C
12
A1
A1
7F
20
20
11
0E
ENDCHAR
STARTCHAR uni04BD
ENCODING 1213
SWIDTH 600 0
DWIDTH 9 0
BBX 8 7 0 0
BITMAP
0C
92
A1
7F
20
11
0E
ENDCHAR
STARTCHAR uni04BE
ENCODING 1214
SWIDTH 600 0
DWIDTH 9 0
BBX 8 12 0 -3
BITMAP
0C
12
A1
A1
7F
20
20
11
0E
04
08
0E
ENDCHAR
STARTCHAR uni04BF
ENCODING 1215
SWIDTH 600 0
DWIDTH 9 0
BBX 8 10 0 -3
BITMAP
0C
92
A1
7F
20
11
0E
04
08
0E
ENDCHAR
STARTCHAR uni04C0
ENCODING 1216
SWIDTH 600 0
DWIDTH 9 0
BBX 5 9 2 0
BITMAP
F8
20
20
20
20
20
20
20
F8
ENDCHAR
STARTCHAR uni04C1
ENCODING 1217
SWIDTH 600 0
DWIDTH 9 0
BBX 9 12 0 0
BITMAP
2200
1C00
0000
DD80
4900
2A00
2A00
1C00
2A00
2A00
4900
DD80
ENDCHAR
STARTCHAR uni04C2
ENCODING 1218
SWIDTH 600 0
DWIDTH 9 0
BBX 9 10 0 0
BITMAP
2200
1C00
0000
DD80
4900
2A00
1C00
2A00
4900
DD80
ENDCHAR
STARTCHAR uni04C3
ENCODING 1219
SWIDTH 600 0
DWIDTH 9 0
BBX 7 12 0 -3
BITMAP
EE
44
48
50
70
48
44
42
E2
02
02
1C
ENDCHAR
STARTCHAR uni04C4
ENCODING 1220
SWIDTH 600 0
DWIDTH 9 0
BBX 7 10 1 -3
BITMAP
EE
48
50
70
4C
42
E2
02
04
18
ENDCHAR
STARTCHAR uni04C7
ENCODING 1223
SWIDTH 600 0
DWIDTH 9 0
BBX 8 12 0 -3
BITMAP
E7
42
42
42
7E
42
42
42
E2
02
02
1C
ENDCHAR
STARTCHAR uni04C8
ENCODING 1224
SWIDTH 600 0
DWIDTH 9 0
BBX 8 10 0 -3
BITMAP
E7
42
42
7E
42
42
E2
02
02
1C
ENDCHAR
STARTCHAR uni04CB
ENCODING 1227
SWIDTH 600 0
DWIDTH 9 0
BBX 8 11 0 -2
BITMAP
E7
42
42
42
46
3A
02
02
07
04
04
ENDCHAR
STARTCHAR uni04CC
ENCODING 1228
SWIDTH 600 0
DWIDTH 9 0
BBX 8 9 0 -2
BITMAP
E7
42
42
46
3A
02
07
04
04
ENDCHAR
STARTCHAR uni04D0
ENCODING 1232
SWIDTH 600 0
DWIDTH 9 0
BBX 9 12 0 0
BITMAP
2200
1C00
0000
3800
0800
1400
1400
2200
3E00
4100
4100
F780
ENDCHAR
STARTCHAR uni04D1
ENCODING 1233
SWIDTH 600 0
DWIDTH 9 0
BBX 7 10 1 0
BITMAP
48
30
00
78
84
04
7C
84
8C
76
ENDCHAR
STARTCHAR uni04D2
ENCODING 1234
SWIDTH 600 0
DWIDTH 9 0
BBX 9 11 0 0
BITMAP
3600
0000
3800
0800
1400
1400
2200
3E00
4100
4100
F780
ENDCHAR
STARTCHAR uni04D3
ENCODING 1235
SWIDTH 600 0
DWIDTH 9 0
BBX 7 9 1 0
BITMAP
6C
00
78
84
04
7C
84
8C
76
ENDCHAR
STARTCHAR uni04D4
ENCODING 1236
SWIDTH 600 0
DWIDTH 9 0
BBX 9 9 -1 0
BITMAP
1F80
0C80
1400
1480
2780
3C80
4400
4480
EF80
ENDCHAR
STARTCHAR uni04D5
ENCODING 1237
SWIDTH 600 0
DWIDTH 9 0
BBX 8 7 0 0
BITMAP
76
99
11
7F
88
99
6E
ENDCHAR
STARTCHAR uni04D6
ENCODING 1238
SWIDTH 600 0
DWIDTH 9 0
BBX 7 12 1 0
BITMAP
44
38
00
FE
42
42
48
78
48
42
42
FE
ENDCHAR
STARTCHAR uni04D7
ENCODING 1239
SWIDTH 600 0
DWIDTH 9 0
BBX 7 10 1 0
BITMAP
44
38
00
38
44
82
FE
80
42
3C
ENDCHAR
STARTCHAR uni04D8
ENCODING 1240
SWIDTH 600 0
DWIDTH 9 0
BBX 8 9 0 0
BITMAP
7C
82
01
01
FF
81
81
42
3C
ENDCHAR
STARTCHAR uni04D9
ENCODING 1241
SWIDTH 600 0
DWIDTH 9 0
BBX 7 7 1 0
BITMAP
78
84
02
FE
82
44
38
ENDCHAR
STARTCHAR uni04DA
ENCODING 1242
SWIDTH 600 0
DWIDTH 9 0
BBX 8 11 0 0
BITMAP
36
00
7C
82
01
01
FF
81
81
42
3C
ENDCHAR
STARTCHAR uni04DB
ENCODING 1243
SWIDTH 600 0
DWIDTH 9 0
BBX 7 9 1 0
BITMAP
6C
00
78
84
02
FE
82
44
38
ENDCHAR
STARTCHAR uni04DC
ENCODING 1244
SWIDTH 600 0
DWIDTH 9 0
BBX 9 11 0 0
BITMAP
3600
0000
DD80
4900
2A00
2A00
1C00
2A00
2A00
4900
DD80
ENDCHAR
STARTCHAR uni04DD
ENCODING 1245
SWIDTH 600 0
DWIDTH 9 0
BBX 9 9 0 0
BITMAP
3600
0000
DD80
4900
2A00
1C00
2A00
4900
DD80
ENDCHAR
STARTCHAR uni04DE
ENCODING 1246
SWIDTH 600 0
DWIDTH 9 0
BBX 6 11 1 0
BITMAP
6C
00
B8
C4
84
04
38
04
04
84
78
ENDCHAR
STARTCHAR uni04DF
ENCODING 1247
SWIDTH 600 0
DWIDTH 9 0
BBX 7 12 1 -3
BITMAP
6C
00
BC
C2
02
1C
02
82
7C
10
08
38
ENDCHAR
STARTCHAR uni04E0
ENCODING 1248
SWIDTH 600 0
DWIDTH 9 0
BBX 6 9 1 0
BITMAP
FC
04
08
10
38
04
04
84
78
ENDCHAR
STARTCHAR uni04E1
ENCODING 1249
SWIDTH 600 0
DWIDTH 9 0
BBX 7 10 1 -3
BITMAP
FE
04
08
10
38
04
02
02
84
78
ENDCHAR
STARTCHAR uni04E2
ENCODING 1250
SWIDTH 600 0
DWIDTH 9 0
BBX 8 11 0 0
BITMAP
3C
00
E7
46
4A
4A
4A
52
52
62
E7
ENDCHAR
STARTCHAR uni04E3
ENCODING 1251
SWIDTH 600 0
DWIDTH 9 0
BBX 8 9 0 0
BITMAP
3C
00
E7
46
4A
4A
52
62
E7
ENDCHAR
STARTCHAR uni04E4
ENCODING 1252
SWIDTH 600 0
DWIDTH 9 0
BBX 8 11 0 0
BITMAP
66
00
E7
46
4A
4A
4A
52
52
62
E7
ENDCHAR
STARTCHAR uni04E5
ENCODING 1253
SWIDTH 600 0
DWIDTH 9 0
BBX 8 9 0 0
BITMAP
66
00
E7
46
4A
4A
52
62
E7
ENDCHAR
STARTCHAR uni04E6
ENCODING 1254
SWIDTH 600 0
DWIDTH 9 0
BBX 8 11 0 0
BITMAP
36
00
3C
42
81
81
81
81
81
42
3C
ENDCHAR
STARTCHAR uni04E7
ENCODING 1255
SWIDTH 600 0
DWIDTH 9 0
BBX 8 9 0 0
BITMAP
66
00
3C
42
81
81
81
42
3C
ENDCHAR
STARTCHAR uni04E8
ENCODING 1256
SWIDTH 600 0
DWIDTH 9 0
BBX 8 9 0 0
BITMAP
3C
42
81
81
FF
81
81
42
3C
ENDCHAR
STARTCHAR uni04E9
ENCODING 1257
SWIDTH 600 0
DWIDTH 9 0
BBX 8 7 0 0
BITMAP
3C
42
81
FF
81
42
3C
ENDCHAR
STARTCHAR uni04EA
ENCODING 1258
SWIDTH 600 0
DWIDTH 9 0
BBX 8 11 0 0
BITMAP
66
00
3C
42
81
81
FF
81
81
42
3C
ENDCHAR
STARTCHAR uni04EB
ENCODING 1259
SWIDTH 600 0
DWIDTH 9 0
BBX 8 9 0 0
BITMAP
66
00
3C
42
81
FF
81
42
3C
ENDCHAR
STARTCHAR uni04EC
ENCODING 1260
SWIDTH 600 0
DWIDTH 9 0
BBX 7 11 1 0
BITMAP
6C
00
B8
C4
82
02
1E
02
02
84
78
ENDCHAR
STARTCHAR uni04ED
ENCODING 1261
SWIDTH 600 0
DWIDTH 9 0
BBX 7 9 1 0
BITMAP
6C
00
B8
C4
02
1E
02
84
78
ENDCHAR
STARTCHAR uni04EE
ENCODING 1262
SWIDTH 600 0
DWIDTH 9 0
BBX 9 11 0 0
BITMAP
3E00
0000
E380
4100
2200
2200
1400
1400
0800
4800
3000
ENDCHAR
STARTCHAR uni04EF
ENCODING 1263
SWIDTH 600 0
DWIDTH 9 0
BBX 8 12 0 -3
BITMAP
3C
00
E7
42
42
24
24
18
08
10
10
78
ENDCHAR
STARTCHAR uni04F0
ENCODING 1264
SWIDTH 600 0
DWIDTH 9 0
BBX 9 11 0 0
BITMAP
3600
0000
E380
4100
2200
2200
1400
1400
0800
4800
3000
ENDCHAR
STARTCHAR uni04F1
ENCODING 1265
SWIDTH 600 0
DWIDTH 9 0
BBX 8 12 0 -3
BITMAP
66
00
E7
42
42
24
24
18
08
10
10
78
ENDCHAR
STARTCHAR uni04F2
ENCODING 1266
SWIDTH 600 0
DWIDTH 9 0
BBX 9 12 0 0
BITMAP
1200
2400
0000
E380
4100
2200
2200
1400
1400
0800
4800
3000
ENDCHAR
STARTCHAR uni04F3
ENCODING 1267
SWIDTH 600 0
DWIDTH 9 0
BBX 8 13 0 -3
BITMAP
12
24
00
E7
42
42
24
24
18
08
10
10
78
ENDCHAR
STARTCHAR uni04F4
ENCODING 1268
SWIDTH 600 0
DWIDTH 9 0
BBX 8 11 0 0
BITMAP
66
00
E7
42
42
42
46
3A
02
02
07
ENDCHAR
STARTCHAR uni04F5
ENCODING 1269
SWIDTH 600 0
DWIDTH 9 0
BBX 8 9 0 0
BITMAP
66
00
E7
42
42
46
3A
02
07
ENDCHAR
STARTCHAR uni04F8
ENCODING 1272
SWIDTH 600 0
DWIDTH 9 0
BBX 8 11 0 0
BITMAP
66
00
E7
42
42
42
72
4A
4A
4A
F7
ENDCHAR
STARTCHAR uni04F9
ENCODING 1273
SWIDTH 600 0
DWIDTH 9 0
BBX 8 9 0 0
BITMAP
66
00
E7
42
42
72
4A
4A
F7
ENDCHAR
ENDFONT
